# Blender v3.0.1 OBJ File: 'cardboard.blend'
# www.blender.org
mtllib cardboard.mtl
o Plane
v -0.843722 0.056874 0.000000
v -0.821797 0.023592 0.000000
v -0.709186 0.007461 0.000000
v 0.221034 0.024049 0.000000
v 0.340952 0.156854 0.000000
v 0.332107 0.214626 0.000000
v 0.102376 0.372726 0.000000
v 0.063153 0.423862 0.000000
v 0.048223 0.502141 0.000000
v 0.056521 0.897641 0.000000
v 0.036103 1.142273 0.000000
v 0.026887 1.246474 0.000000
v 0.032624 1.288066 0.000000
v 0.043758 1.312583 0.000000
v 0.099903 1.318163 0.000000
v 0.134611 1.363836 0.000000
v 0.120660 1.695520 0.000000
v 0.114505 1.839406 0.000000
v 0.078212 1.964246 0.000000
v 0.076760 2.160300 -0.000000
v 0.105935 2.209403 -0.000000
v 0.153983 2.244638 -0.000000
v 0.203085 2.246095 -0.000000
v 0.266782 2.229131 -0.000000
v 0.292725 2.239550 -0.000000
v 0.287587 2.262781 -0.000000
v 0.288280 2.287199 -0.000000
v 0.023278 2.376423 -0.000000
v 0.008446 2.441656 -0.000000
v 0.001224 2.642208 -0.000000
v -0.000828 2.697602 -0.000000
v 0.007450 2.746387 -0.000000
v 0.035518 2.797523 -0.000000
v 0.125738 2.819193 -0.000000
v 0.166778 2.847745 -0.000000
v 0.212512 2.837517 -0.000000
v 0.297293 2.828317 -0.000000
v 0.332232 2.825252 -0.000000
v 0.424791 2.831677 -0.000000
v 0.558675 2.860404 -0.000000
v 0.742026 2.911428 -0.000000
v 0.765294 2.878212 -0.000000
v 0.802974 2.794918 -0.000000
v 0.839605 2.770044 -0.000000
v 0.883941 2.758058 -0.000000
v 0.927243 2.724799 -0.000000
v 0.947799 2.670758 -0.000000
v 0.971923 2.685669 -0.000000
v 0.938501 2.784089 -0.000000
v 0.937292 2.841782 -0.000000
v 0.929690 2.902042 -0.000000
v 0.905133 2.970571 -0.000000
v 0.874161 3.017640 -0.000000
v 0.833638 3.045547 -0.000000
v 0.798204 3.046308 -0.000000
v 0.321946 2.982321 -0.000000
v 0.193673 3.011545 -0.000000
v -0.022959 3.153209 -0.000000
v -0.073614 3.170224 -0.000000
v -0.116916 3.182860 -0.000000
v -0.173063 3.185782 -0.000000
v -0.220347 3.180921 -0.000000
v -0.309264 3.202767 -0.000000
v -0.322849 3.294626 -0.000000
v -0.295354 3.357151 -0.000000
v -0.229398 3.537200 -0.000000
v -0.245680 3.646028 -0.000000
v -0.278303 3.738881 -0.000000
v -0.346120 3.802042 -0.000000
v -0.429948 3.839078 -0.000000
v -0.515935 3.851316 -0.000000
v -0.596718 3.817727 -0.000000
v -0.661876 3.761345 -0.000000
v -0.726317 3.662740 -0.000000
v -0.730185 3.583369 -0.000000
v -0.641873 3.378908 -0.000000
v -0.568741 3.244308 -0.000000
v -0.549258 3.199350 -0.000000
v -0.576507 3.146385 -0.000000
v -0.663920 3.127702 -0.000000
v -0.815037 3.081102 -0.000000
v -0.867550 2.948210 -0.000000
v -0.874310 2.658953 -0.000000
v -0.809079 2.667268 -0.000000
v -0.776605 2.524966 -0.000000
v -0.736826 2.409025 -0.000000
v -0.637505 2.363105 -0.000000
v -0.618408 2.344041 -0.000000
v -0.648809 2.292623 -0.000000
v -0.661854 2.144802 -0.000000
v -0.679408 2.122720 0.000000
v -0.671314 2.063421 0.000000
v -0.693975 1.913947 0.000000
v -0.682066 1.888877 0.000000
v -0.704895 1.759250 0.000000
v -0.696507 1.676394 0.000000
v -0.688642 1.604873 0.000000
v -0.691159 1.512147 0.000000
v -0.707085 1.299935 0.000000
v -0.690795 1.270183 0.000000
v -0.652388 1.249157 0.000000
v -0.669331 1.137245 0.000000
v -0.708775 0.947903 0.000000
v -0.713829 0.857091 0.000000
v -0.714160 0.742892 0.000000
v -0.703119 0.577927 0.000000
v -0.687848 0.444137 0.000000
v -0.712161 0.389998 0.000000
v -0.710458 0.346251 0.000000
v -0.781087 0.227054 0.000000
v -0.847994 0.120051 0.000000
v -0.857778 0.082085 0.000000
vt 0.734625 0.597746
vt 0.734323 0.606501
vt 0.732423 0.615646
vt 0.726283 0.626046
vt 0.718540 0.633189
vt 0.708410 0.637424
vt 0.699551 0.637539
vt 0.580486 0.627829
vt 0.548418 0.632264
vt 0.494260 0.653762
vt 0.481597 0.656345
vt 0.470771 0.658262
vt 0.456734 0.658706
vt 0.444913 0.657968
vt 0.422684 0.661283
vt 0.419288 0.675224
vt 0.426161 0.684712
vt 0.442650 0.712036
vt 0.438580 0.728552
vt 0.430424 0.742643
vt 0.413470 0.752228
vt 0.392513 0.757849
vt 0.371016 0.759706
vt 0.350820 0.754608
vt 0.334531 0.746052
vt 0.318421 0.731088
vt 0.317454 0.719043
vt 0.339532 0.688014
vt 0.357815 0.667587
vt 0.362685 0.660765
vt 0.355873 0.652727
vt 0.334020 0.649892
vt 0.296241 0.642820
vt 0.283113 0.622652
vt 0.281423 0.578755
vt 0.297730 0.580017
vt 0.305849 0.558421
vt 0.315794 0.540827
vt 0.340624 0.533858
vt 0.345398 0.530965
vt 0.337798 0.523162
vt 0.334537 0.500729
vt 0.330148 0.497378
vt 0.332172 0.488378
vt 0.326506 0.465695
vt 0.329483 0.461890
vt 0.323776 0.442218
vt 0.325873 0.429644
vt 0.327840 0.418790
vt 0.327210 0.404718
vt 0.323229 0.372513
vt 0.327301 0.367998
vt 0.336903 0.364808
vt 0.332667 0.347824
vt 0.322806 0.319090
vt 0.321543 0.305308
vt 0.321460 0.287978
vt 0.324220 0.262943
vt 0.328038 0.242639
vt 0.321960 0.234423
vt 0.322386 0.227784
vt 0.304728 0.209695
vt 0.288001 0.193457
vt 0.285555 0.187695
vt 0.289069 0.183869
vt 0.294551 0.178818
vt 0.322704 0.176370
vt 0.555259 0.178888
vt 0.585238 0.199042
vt 0.583027 0.207809
vt 0.525594 0.231802
vt 0.515788 0.239563
vt 0.512056 0.251442
vt 0.514130 0.311462
vt 0.509026 0.348587
vt 0.506722 0.364400
vt 0.508156 0.370712
vt 0.510940 0.374433
vt 0.524976 0.375280
vt 0.533653 0.382211
vt 0.530165 0.432547
vt 0.528626 0.454382
vt 0.519553 0.473328
vt 0.519190 0.503081
vt 0.526484 0.510532
vt 0.538496 0.515880
vt 0.550771 0.516101
vt 0.566696 0.513526
vt 0.573181 0.515108
vt 0.571897 0.518633
vt 0.572070 0.522339
vt 0.505820 0.535879
vt 0.502112 0.545779
vt 0.500306 0.576214
vt 0.499793 0.584620
vt 0.501862 0.592024
vt 0.508879 0.599784
vt 0.531435 0.603073
vt 0.541694 0.607406
vt 0.553128 0.605854
vt 0.574323 0.604457
vt 0.583058 0.603992
vt 0.606198 0.604967
vt 0.639669 0.609327
vt 0.685507 0.617070
vt 0.691324 0.612030
vt 0.700744 0.599389
vt 0.709901 0.595614
vt 0.720985 0.593795
vt 0.731811 0.588748
vt 0.736950 0.580547
vt 0.742981 0.582810
vn 0.0000 0.0000 1.0000
usemtl Umberto
s off
f 49/1/1 50/2/1 51/3/1 52/4/1 53/5/1 54/6/1 55/7/1 56/8/1 57/9/1 58/10/1 59/11/1 60/12/1 61/13/1 62/14/1 63/15/1 64/16/1 65/17/1 66/18/1 67/19/1 68/20/1 69/21/1 70/22/1 71/23/1 72/24/1 73/25/1 74/26/1 75/27/1 76/28/1 77/29/1 78/30/1 79/31/1 80/32/1 81/33/1 82/34/1 83/35/1 84/36/1 85/37/1 86/38/1 87/39/1 88/40/1 89/41/1 90/42/1 91/43/1 92/44/1 93/45/1 94/46/1 95/47/1 96/48/1 97/49/1 98/50/1 99/51/1 100/52/1 101/53/1 102/54/1 103/55/1 104/56/1 105/57/1 106/58/1 107/59/1 108/60/1 109/61/1 110/62/1 111/63/1 112/64/1 1/65/1 2/66/1 3/67/1 4/68/1 5/69/1 6/70/1 7/71/1 8/72/1 9/73/1 10/74/1 11/75/1 12/76/1 13/77/1 14/78/1 15/79/1 16/80/1 17/81/1 18/82/1 19/83/1 20/84/1 21/85/1 22/86/1 23/87/1 24/88/1 25/89/1 26/90/1 27/91/1 28/92/1 29/93/1 30/94/1 31/95/1 32/96/1 33/97/1 34/98/1 35/99/1 36/100/1 37/101/1 38/102/1 39/103/1 40/104/1 41/105/1 42/106/1 43/107/1 44/108/1 45/109/1 46/110/1 47/111/1 48/112/1
